# xmcd
#
# Track frame offsets:
#	150
#	12937
#	25747
#	38279
#	49478
#	67273
#	79426
#	95382
#	106197
#	118863
#	131814
#	143796
#	154452
#	164774
#	173796
#	184461
#	196164
#	211404
#	223883
#	238873
#	250749
#	265737
#	284404
#
# Disc length: 3970
#
# Revision: 1
# Processed by: cddbd v1.5.1PL0 Copyright (c) Steve Scherf et al.
# Submitted via: CDex 1.40Beta9
# Normalized: r0:TDELIM( - )
#
DISCID=620f8017
DTITLE=country - Rebelove jsou zpet
DYEAR=2001
DGENRE=Country
TTITLE0=vyznani - pavel novak
TTITLE1=lekorice - vaclav and jan neckar
TTITLE2=do vlasu - josef zima
TTITLE3=ze soboty na nedeli - vera nerusilova and inkognito
TTITLE4=divoky kone - pavel towen
TTITLE5=chytila jsem na pasece motylka - daniela sinkorova
TTITLE6=maria - karel gott
TTITLE7=massachusetts - karolina jezova, ...
TTITLE8=hadej, matyldo - karel hala
TTITLE9=bud porad se mnou - pavel towen
TTITLE10=sea cruise - pavel sedlacek
TTITLE11=tak jak plyne reky proud - hynek svrcek
TTITLE12=dnes v noci - karolina jezova a bohus matus
TTITLE13=klokoci - milan dvorak
TTITLE14=normalne - pavlina filipovska
TTITLE15=tenhle kluk - denisa markova
TTITLE16=it's only make believe - pavel sedlacek
TTITLE17=cesta rajem - karel gott
TTITLE18=tu kytaru jsem koupil kvuli tobe - vaclav and jan neckar
TTITLE19=dej mi vic sve lasky - olympic
TTITLE20=dum u vychazejiciho slunce - jan urban
TTITLE21=schody do nebe - karel kopecky
TTITLE22=nepis dal - denisa markova
EXTD=YEAR: 2001 ID3G: 2
EXTT0=
EXTT1=
EXTT2=
EXTT3=
EXTT4=
EXTT5=
EXTT6=
EXTT7=
EXTT8=
EXTT9=
EXTT10=
EXTT11=
EXTT12=
EXTT13=
EXTT14=
EXTT15=
EXTT16=
EXTT17=
EXTT18=
EXTT19=
EXTT20=
EXTT21=
EXTT22=
PLAYORDER=
